<svg height="2318" width="720" xmlns="http://www.w3.org/2000/svg">
<rect height="2318" fill="#555" width="720"></rect>
<text fill="#7f7" font-family="Courier New" font-size="12" xml:space="preserve">
<tspan x="10" y="26"></tspan>
<tspan x="10" y="42">&gt; npmdoc-ava@0.0.2 test /home/travis/build/npmdoc/node-npmdoc-ava</tspan>
<tspan x="10" y="58">&gt; (set -e; export PORT=$(utility2 shServerPortRandom); utility2 test test.js)</tspan>
<tspan x="10" y="74"></tspan>
<tspan x="10" y="90"></tspan>
<tspan x="10" y="106">[MODE_BUILD=npmTest] - 2017-04-08T07:53:29Z - npm-testing /home/travis/build/npmdoc/node-npmdoc-\</tspan>
<tspan x="10" y="122">ava</tspan>
<tspan x="10" y="138"></tspan>
<tspan x="10" y="154"></tspan>
<tspan x="10" y="170">covering $ /home/travis/.nvm/versions/node/v6.10.2/bin/node /home/travis/build/npmdoc/node-npmdo\</tspan>
<tspan x="10" y="186">c-ava/test.js</tspan>
<tspan x="10" y="202">merging file:///home/travis/build/npmdoc/node-npmdoc-ava/tmp/build/test-report.json to test-repo\</tspan>
<tspan x="10" y="218">rt</tspan>
<tspan x="10" y="234">&gt; server listening on http-port 57067</tspan>
<tspan x="10" y="250"></tspan>
<tspan x="10" y="266">Test files must be run with the AVA CLI:</tspan>
<tspan x="10" y="282"></tspan>
<tspan x="10" y="298">    $ ava test.js</tspan>
<tspan x="10" y="314"></tspan>
<tspan x="10" y="330"></tspan>
<tspan x="10" y="346">Test files must be run with the AVA CLI:</tspan>
<tspan x="10" y="362"></tspan>
<tspan x="10" y="378">    $ ava test.js</tspan>
<tspan x="10" y="394"></tspan>
<tspan x="10" y="410">created apidoc file:///home/travis/build/npmdoc/node-npmdoc-ava/tmp/build/apidoc.html</tspan>
<tspan x="10" y="426"></tspan>
<tspan x="10" y="442"></tspan>
<tspan x="10" y="458">browserTest - created electron entry-page /home/travis/build/npmdoc/node-npmdoc-ava/tmp/electron\</tspan>
<tspan x="10" y="474">.15b4c8dc1c60.2a5ace9fb1d54.html</tspan>
<tspan x="10" y="490"></tspan>
<tspan x="10" y="506"></tspan>
<tspan x="10" y="522">Test files must be run with the AVA CLI:</tspan>
<tspan x="10" y="538"></tspan>
<tspan x="10" y="554">    $ ava test.js</tspan>
<tspan x="10" y="570"></tspan>
<tspan x="10" y="586"></tspan>
<tspan x="10" y="602">Test files must be run with the AVA CLI:</tspan>
<tspan x="10" y="618"></tspan>
<tspan x="10" y="634">    $ ava test.js</tspan>
<tspan x="10" y="650"></tspan>
<tspan x="10" y="666">Xlib:  extension "RANDR" missing on display ":99.0".</tspan>
<tspan x="10" y="682">[node test-case 1 of 6 passed] - testCase_buildLib_default</tspan>
<tspan x="10" y="698">[node test-case 2 of 6 passed] - testCase_buildReadme_default</tspan>
<tspan x="10" y="714">[node test-case 3 of 6 passed] - testCase_buildTest_default</tspan>
<tspan x="10" y="730"></tspan>
<tspan x="10" y="746">browserTest - created electron entry-page /home/travis/build/npmdoc/node-npmdoc-ava/tmp/electron\</tspan>
<tspan x="10" y="762">.15b4c8dc2380.20db2f1c1c403.html</tspan>
<tspan x="10" y="778"></tspan>
<tspan x="10" y="794">Xlib:  extension "RANDR" missing on display ":99.0".</tspan>
<tspan x="10" y="810">merging file:///home/travis/build/npmdoc/node-npmdoc-ava/tmp/build/test-report.json to test-repo\</tspan>
<tspan x="10" y="826">rt</tspan>
<tspan x="10" y="842">&gt; server listening on http-port 64843</tspan>
<tspan x="10" y="858">Xlib:  extension "RANDR" missing on display ":99.0".</tspan>
<tspan x="10" y="874">[4795:0408/075331:WARNING:audio_manager.cc(314)] Multiple instances of AudioManager detected</tspan>
<tspan x="10" y="890">[4795:0408/075331:WARNING:audio_manager.cc(275)] Multiple instances of AudioManager detected</tspan>
<tspan x="10" y="906">[4839:0408/075331:ERROR:sandbox_linux.cc(343)] InitializeSandbox() called with multiple threads \</tspan>
<tspan x="10" y="922">in process gpu-process. </tspan>
<tspan x="10" y="938">[4795:0408/075331:ERROR:browser_gpu_channel_host_factory.cc(131)] Failed to create channel.</tspan>
<tspan x="10" y="954">merging file:///home/travis/build/npmdoc/node-npmdoc-ava/tmp/build/test-report.json to test-repo\</tspan>
<tspan x="10" y="970">rt</tspan>
<tspan x="10" y="986">Xlib:  extension "RANDR" missing on display ":99.0".</tspan>
<tspan x="10" y="1002"></tspan>
<tspan x="10" y="1018">browserTest - opened url /home/travis/build/npmdoc/node-npmdoc-ava/tmp/build/apidoc.html</tspan>
<tspan x="10" y="1034"></tspan>
<tspan x="10" y="1050">[4811:0408/075331:WARNING:audio_manager.cc(314)] Multiple instances of AudioManager detected</tspan>
<tspan x="10" y="1066">[4811:0408/075331:WARNING:audio_manager.cc(275)] Multiple instances of AudioManager detected</tspan>
<tspan x="10" y="1082">[4881:0408/075331:ERROR:sandbox_linux.cc(343)] InitializeSandbox() called with multiple threads \</tspan>
<tspan x="10" y="1098">in process gpu-process. </tspan>
<tspan x="10" y="1114">[4811:0408/075331:ERROR:browser_gpu_channel_host_factory.cc(131)] Failed to create channel.</tspan>
<tspan x="10" y="1130"></tspan>
<tspan x="10" y="1146">browserTest - opened url http://127.0.0.1:57067?modeTest=1</tspan>
<tspan x="10" y="1162"></tspan>
<tspan x="10" y="1178">[4811:0408/075333:INFO:CONSOLE(248)] "----------|-----------|-----------|-----------|-----------\</tspan>
<tspan x="10" y="1194">|</tspan>
<tspan x="10" y="1210">File      |   % Stmts |% Branches |   % Funcs |   % Lines |</tspan>
<tspan x="10" y="1226">----------|-----------|-----------|-----------|-----------|</tspan>
<tspan x="10" y="1242">----------|-----------|-----------|-----------|-----------|</tspan>
<tspan x="10" y="1258">All files |       100 |       100 |       100 |       100 |</tspan>
<tspan x="10" y="1274">----------|-----------|-----------|-----------|-----------|</tspan>
<tspan x="10" y="1290">", source: file:///home/travis/build/npmdoc/node-npmdoc-ava/tmp/electron.15b4c8dc2380.20db2f1c1c\</tspan>
<tspan x="10" y="1306">403.html (248)</tspan>
<tspan x="10" y="1322">[4811:0408/075333:INFO:CONSOLE(248)] "created coverage file:///tmp/build/coverage.html/index.htm\</tspan>
<tspan x="10" y="1338">l", source: file:///home/travis/build/npmdoc/node-npmdoc-ava/tmp/electron.15b4c8dc2380.20db2f1c1\</tspan>
<tspan x="10" y="1354">c403.html (248)</tspan>
<tspan x="10" y="1370">[node test-case 4 of 6 passed] - testCase_buildApp_default</tspan>
<tspan x="10" y="1386"></tspan>
<tspan x="10" y="1402">browserTest - created screenCapture file:///home/travis/build/npmdoc/node-npmdoc-ava/tmp/build/s\</tspan>
<tspan x="10" y="1418">creenCapture.npmTest.browser.%2Fhome%2Ftravis%2Fbuild%2Fnpmdoc%2Fnode-npmdoc-ava%2Ftmp%2Fbuild%2\</tspan>
<tspan x="10" y="1434">Fapidoc.html.png</tspan>
<tspan x="10" y="1450"></tspan>
<tspan x="10" y="1466">browserTest - created screenCapture file:///home/travis/build/npmdoc/node-npmdoc-ava/tmp/build/s\</tspan>
<tspan x="10" y="1482">creenCapture.npmTest.browser.%2Fhome%2Ftravis%2Fbuild%2Fnpmdoc%2Fnode-npmdoc-ava%2Ftmp%2Fbuild%2\</tspan>
<tspan x="10" y="1498">Fapidoc.html.html</tspan>
<tspan x="10" y="1514"></tspan>
<tspan x="10" y="1530">browserTest - exit-code 0 - /home/travis/build/npmdoc/node-npmdoc-ava/tmp/build/apidoc.html</tspan>
<tspan x="10" y="1546"></tspan>
<tspan x="10" y="1562">[node test-case 5 of 6 passed] - testCase_buildApidoc_default</tspan>
<tspan x="10" y="1578"></tspan>
<tspan x="10" y="1594">browserTest - created screenCapture file:///home/travis/build/npmdoc/node-npmdoc-ava/tmp/build/s\</tspan>
<tspan x="10" y="1610">creenCapture.npmTest.browser.%2F.png</tspan>
<tspan x="10" y="1626"></tspan>
<tspan x="10" y="1642">browserTest - created screenCapture file:///home/travis/build/npmdoc/node-npmdoc-ava/tmp/build/s\</tspan>
<tspan x="10" y="1658">creenCapture.npmTest.browser.%2F.html</tspan>
<tspan x="10" y="1674"></tspan>
<tspan x="10" y="1690">browserTest - exit-code 0 - http://127.0.0.1:57067?modeTest=1</tspan>
<tspan x="10" y="1706"></tspan>
<tspan x="10" y="1722"></tspan>
<tspan x="10" y="1738">browserTest - merged coverage from /home/travis/build/npmdoc/node-npmdoc-ava/tmp/coverage.npmTes\</tspan>
<tspan x="10" y="1754">t.browser.%2F.json</tspan>
<tspan x="10" y="1770"></tspan>
<tspan x="10" y="1786"></tspan>
<tspan x="10" y="1802">browserTest - merging test-report from /home/travis/build/npmdoc/node-npmdoc-ava/tmp/test-report\</tspan>
<tspan x="10" y="1818">.npmTest.browser.%2F.json</tspan>
<tspan x="10" y="1834"></tspan>
<tspan x="10" y="1850">[node test-case 6 of 6 passed] - testCase_webpage_default</tspan>
<tspan x="10" y="1866">------------------------|-----------|-----------|-----------|-----------|</tspan>
<tspan x="10" y="1882">File                    |   % Stmts |% Branches |   % Funcs |   % Lines |</tspan>
<tspan x="10" y="1898">------------------------|-----------|-----------|-----------|-----------|</tspan>
<tspan x="10" y="1914">   node-npmdoc-ava/     |       100 |       100 |       100 |       100 |</tspan>
<tspan x="10" y="1930">      example.js        |       100 |       100 |       100 |       100 |</tspan>
<tspan x="10" y="1946">      lib.npmdoc_ava.js |       100 |       100 |       100 |       100 |</tspan>
<tspan x="10" y="1962">      test.js           |       100 |       100 |       100 |       100 |</tspan>
<tspan x="10" y="1978">------------------------|-----------|-----------|-----------|-----------|</tspan>
<tspan x="10" y="1994">All files               |       100 |       100 |       100 |       100 |</tspan>
<tspan x="10" y="2010">------------------------|-----------|-----------|-----------|-----------|</tspan>
<tspan x="10" y="2026"></tspan>
<tspan x="10" y="2042">created coverage file:///home/travis/build/npmdoc/node-npmdoc-ava/tmp/build/coverage.html/index.\</tspan>
<tspan x="10" y="2058">html</tspan>
<tspan x="10" y="2074">merging file:///home/travis/build/npmdoc/node-npmdoc-ava/tmp/build/test-report.json to test-repo\</tspan>
<tspan x="10" y="2090">rt</tspan>
<tspan x="10" y="2106"></tspan>
<tspan x="10" y="2122">-------------------------------------------------------</tspan>
<tspan x="10" y="2138">| test-report - buildNpmdoc - node - linux v6.10.2 - 2017-04-08T07:53:08.540Z</tspan>
<tspan x="10" y="2154">|   37021 ms            0 failed        6 passed      |</tspan>
<tspan x="10" y="2170">-------------------------------------------------------</tspan>
<tspan x="10" y="2186"></tspan>
<tspan x="10" y="2202">created test-report file:///home/travis/build/npmdoc/node-npmdoc-ava/tmp/build/test-report.html</tspan>
<tspan x="10" y="2218"></tspan>
<tspan x="10" y="2234"></tspan>
<tspan x="10" y="2250">npmTest - 0 failed tests</tspan>
<tspan x="10" y="2266"></tspan>
<tspan x="10" y="2282"></tspan>
<tspan x="10" y="2298">[MODE_BUILD=npmTest] - 2017-04-08T07:53:48Z - EXIT_CODE - 0</tspan>
</text>
</svg>
