<svg height="2478" width="720" xmlns="http://www.w3.org/2000/svg">
<rect height="2478" fill="#555" width="720"></rect>
<text fill="#7f7" font-family="Courier New" font-size="12" xml:space="preserve">
<tspan x="10" y="26"></tspan>
<tspan x="10" y="42">&gt; npmdoc-ava@0.0.1 test /home/travis/build/npmdoc/node-npmdoc-ava</tspan>
<tspan x="10" y="58">&gt; (set -e; export PORT=$(utility2 shServerPortRandom); utility2 test test.js)</tspan>
<tspan x="10" y="74"></tspan>
<tspan x="10" y="90"></tspan>
<tspan x="10" y="106">[MODE_BUILD=npmTest] - 2017-04-02T13:13:02Z - npm-testing /home/travis/build/npmdoc/node-npmdoc-\</tspan>
<tspan x="10" y="122">ava</tspan>
<tspan x="10" y="138"></tspan>
<tspan x="10" y="154"></tspan>
<tspan x="10" y="170">covering $ /home/travis/.nvm/versions/node/v6.10.1/bin/node /home/travis/build/npmdoc/node-npmdo\</tspan>
<tspan x="10" y="186">c-ava/test.js</tspan>
<tspan x="10" y="202">merging file:///home/travis/build/npmdoc/node-npmdoc-ava/tmp/build/test-report.json to test-repo\</tspan>
<tspan x="10" y="218">rt</tspan>
<tspan x="10" y="234">&gt; server listening on http-port 46030</tspan>
<tspan x="10" y="250"></tspan>
<tspan x="10" y="266">Test files must be run with the AVA CLI:</tspan>
<tspan x="10" y="282"></tspan>
<tspan x="10" y="298">    $ ava test.js</tspan>
<tspan x="10" y="314"></tspan>
<tspan x="10" y="330"></tspan>
<tspan x="10" y="346">Test files must be run with the AVA CLI:</tspan>
<tspan x="10" y="362"></tspan>
<tspan x="10" y="378">    $ ava test.js</tspan>
<tspan x="10" y="394"></tspan>
<tspan x="10" y="410"></tspan>
<tspan x="10" y="426">Test files must be run with the AVA CLI:</tspan>
<tspan x="10" y="442"></tspan>
<tspan x="10" y="458">    $ ava test.js</tspan>
<tspan x="10" y="474"></tspan>
<tspan x="10" y="490">created apidoc file:///home/travis/build/npmdoc/node-npmdoc-ava/tmp/build/apidoc.html</tspan>
<tspan x="10" y="506"></tspan>
<tspan x="10" y="522"></tspan>
<tspan x="10" y="538">browserTest - created electron entry-page /home/travis/build/npmdoc/node-npmdoc-ava/tmp/electron\</tspan>
<tspan x="10" y="554">.15b2ecc2b180.a99e9ead9592.html</tspan>
<tspan x="10" y="570"></tspan>
<tspan x="10" y="586"></tspan>
<tspan x="10" y="602">Test files must be run with the AVA CLI:</tspan>
<tspan x="10" y="618"></tspan>
<tspan x="10" y="634">    $ ava test.js</tspan>
<tspan x="10" y="650"></tspan>
<tspan x="10" y="666"></tspan>
<tspan x="10" y="682">Test files must be run with the AVA CLI:</tspan>
<tspan x="10" y="698"></tspan>
<tspan x="10" y="714">    $ ava test.js</tspan>
<tspan x="10" y="730"></tspan>
<tspan x="10" y="746"></tspan>
<tspan x="10" y="762">Test files must be run with the AVA CLI:</tspan>
<tspan x="10" y="778"></tspan>
<tspan x="10" y="794">    $ ava test.js</tspan>
<tspan x="10" y="810"></tspan>
<tspan x="10" y="826">Xlib:  extension "RANDR" missing on display ":99.0".</tspan>
<tspan x="10" y="842">[node test-case 1 of 6 passed] - testCase_buildLib_default</tspan>
<tspan x="10" y="858">[node test-case 2 of 6 passed] - testCase_buildReadme_default</tspan>
<tspan x="10" y="874">[node test-case 3 of 6 passed] - testCase_buildTest_default</tspan>
<tspan x="10" y="890"></tspan>
<tspan x="10" y="906">browserTest - created electron entry-page /home/travis/build/npmdoc/node-npmdoc-ava/tmp/electron\</tspan>
<tspan x="10" y="922">.15b2ecc2bf00.6d926f1d87fd8.html</tspan>
<tspan x="10" y="938"></tspan>
<tspan x="10" y="954">Xlib:  extension "RANDR" missing on display ":99.0".</tspan>
<tspan x="10" y="970">merging file:///home/travis/build/npmdoc/node-npmdoc-ava/tmp/build/test-report.json to test-repo\</tspan>
<tspan x="10" y="986">rt</tspan>
<tspan x="10" y="1002">Xlib:  extension "RANDR" missing on display ":99.0".</tspan>
<tspan x="10" y="1018">[4764:0402/131305:WARNING:audio_manager.cc(314)] Multiple instances of AudioManager detected</tspan>
<tspan x="10" y="1034">[4764:0402/131305:WARNING:audio_manager.cc(275)] Multiple instances of AudioManager detected</tspan>
<tspan x="10" y="1050">[4809:0402/131305:ERROR:sandbox_linux.cc(343)] InitializeSandbox() called with multiple threads \</tspan>
<tspan x="10" y="1066">in process gpu-process. </tspan>
<tspan x="10" y="1082">&gt; [4764:0402/131305:ERROR:browser_gpu_channel_host_factory.cc(131)] Failed to create channel.</tspan>
<tspan x="10" y="1098">server listening on http-port 38374</tspan>
<tspan x="10" y="1114">merging file:///home/travis/build/npmdoc/node-npmdoc-ava/tmp/build/test-report.json to test-repo\</tspan>
<tspan x="10" y="1130">rt</tspan>
<tspan x="10" y="1146">Xlib:  extension "RANDR" missing on display ":99.0".</tspan>
<tspan x="10" y="1162">[4777:0402/131305:WARNING:audio_manager.cc(314)] Multiple instances of AudioManager detected</tspan>
<tspan x="10" y="1178">[4777:0402/131305:WARNING:audio_manager.cc(275)] Multiple instances of AudioManager detected</tspan>
<tspan x="10" y="1194">[4846:0402/131305:ERROR:sandbox_linux.cc(343)] InitializeSandbox() called with multiple threads \</tspan>
<tspan x="10" y="1210">in process gpu-process. </tspan>
<tspan x="10" y="1226"></tspan>
<tspan x="10" y="1242">browserTest - opened url /home/travis/build/npmdoc/node-npmdoc-ava/tmp/build/apidoc.html</tspan>
<tspan x="10" y="1258"></tspan>
<tspan x="10" y="1274">[4777:0402/131305:ERROR:browser_gpu_channel_host_factory.cc(131)] Failed to create channel.</tspan>
<tspan x="10" y="1290"></tspan>
<tspan x="10" y="1306">browserTest - opened url http://127.0.0.1:46030?modeTest=1</tspan>
<tspan x="10" y="1322"></tspan>
<tspan x="10" y="1338">[4777:0402/131307:INFO:CONSOLE(245)] "----------|-----------|-----------|-----------|-----------\</tspan>
<tspan x="10" y="1354">|</tspan>
<tspan x="10" y="1370">File      |   % Stmts |% Branches |   % Funcs |   % Lines |</tspan>
<tspan x="10" y="1386">----------|-----------|-----------|-----------|-----------|</tspan>
<tspan x="10" y="1402">----------|-----------|-----------|-----------|-----------|</tspan>
<tspan x="10" y="1418">All files |       100 |       100 |       100 |       100 |</tspan>
<tspan x="10" y="1434">----------|-----------|-----------|-----------|-----------|</tspan>
<tspan x="10" y="1450">", source: file:///home/travis/build/npmdoc/node-npmdoc-ava/tmp/electron.15b2ecc2bf00.6d926f1d87\</tspan>
<tspan x="10" y="1466">fd8.html (245)</tspan>
<tspan x="10" y="1482">[4777:0402/131307:INFO:CONSOLE(245)] "created coverage file:///tmp/build/coverage.html/index.htm\</tspan>
<tspan x="10" y="1498">l", source: file:///home/travis/build/npmdoc/node-npmdoc-ava/tmp/electron.15b2ecc2bf00.6d926f1d8\</tspan>
<tspan x="10" y="1514">7fd8.html (245)</tspan>
<tspan x="10" y="1530">[node test-case 4 of 6 passed] - testCase_buildApp_default</tspan>
<tspan x="10" y="1546"></tspan>
<tspan x="10" y="1562">browserTest - created screen-capture file:///home/travis/build/npmdoc/node-npmdoc-ava/tmp/build/\</tspan>
<tspan x="10" y="1578">screen-capture.npmTest.browser._2Fhome_2Ftravis_2Fbuild_2Fnpmdoc_2Fnode-npmdoc-ava_2Ftmp_2Fbuild\</tspan>
<tspan x="10" y="1594">_2Fapidoc.html.png</tspan>
<tspan x="10" y="1610"></tspan>
<tspan x="10" y="1626">browserTest - created screen-capture file:///home/travis/build/npmdoc/node-npmdoc-ava/tmp/build/\</tspan>
<tspan x="10" y="1642">screen-capture.npmTest.browser._2Fhome_2Ftravis_2Fbuild_2Fnpmdoc_2Fnode-npmdoc-ava_2Ftmp_2Fbuild\</tspan>
<tspan x="10" y="1658">_2Fapidoc.html.html</tspan>
<tspan x="10" y="1674"></tspan>
<tspan x="10" y="1690">browserTest - exit-code 0 - /home/travis/build/npmdoc/node-npmdoc-ava/tmp/build/apidoc.html</tspan>
<tspan x="10" y="1706"></tspan>
<tspan x="10" y="1722">[node test-case 5 of 6 passed] - testCase_buildApidoc_default</tspan>
<tspan x="10" y="1738"></tspan>
<tspan x="10" y="1754">browserTest - created screen-capture file:///home/travis/build/npmdoc/node-npmdoc-ava/tmp/build/\</tspan>
<tspan x="10" y="1770">screen-capture.npmTest.browser..png</tspan>
<tspan x="10" y="1786"></tspan>
<tspan x="10" y="1802">browserTest - created screen-capture file:///home/travis/build/npmdoc/node-npmdoc-ava/tmp/build/\</tspan>
<tspan x="10" y="1818">screen-capture.npmTest.browser..html</tspan>
<tspan x="10" y="1834"></tspan>
<tspan x="10" y="1850">browserTest - exit-code 0 - http://127.0.0.1:46030?modeTest=1</tspan>
<tspan x="10" y="1866"></tspan>
<tspan x="10" y="1882"></tspan>
<tspan x="10" y="1898">browserTest - merged coverage from /home/travis/build/npmdoc/node-npmdoc-ava/tmp/coverage.npmTes\</tspan>
<tspan x="10" y="1914">t.browser.%2F.json</tspan>
<tspan x="10" y="1930"></tspan>
<tspan x="10" y="1946"></tspan>
<tspan x="10" y="1962">browserTest - merging test-report from /home/travis/build/npmdoc/node-npmdoc-ava/tmp/test-report\</tspan>
<tspan x="10" y="1978">.npmTest.browser.%2F.json</tspan>
<tspan x="10" y="1994"></tspan>
<tspan x="10" y="2010">[node test-case 6 of 6 passed] - testCase_webpage_default</tspan>
<tspan x="10" y="2026">------------------------|-----------|-----------|-----------|-----------|</tspan>
<tspan x="10" y="2042">File                    |   % Stmts |% Branches |   % Funcs |   % Lines |</tspan>
<tspan x="10" y="2058">------------------------|-----------|-----------|-----------|-----------|</tspan>
<tspan x="10" y="2074">   node-npmdoc-ava/     |       100 |       100 |       100 |       100 |</tspan>
<tspan x="10" y="2090">      example.js        |       100 |       100 |       100 |       100 |</tspan>
<tspan x="10" y="2106">      lib.npmdoc_ava.js |       100 |       100 |       100 |       100 |</tspan>
<tspan x="10" y="2122">      test.js           |       100 |       100 |       100 |       100 |</tspan>
<tspan x="10" y="2138">------------------------|-----------|-----------|-----------|-----------|</tspan>
<tspan x="10" y="2154">All files               |       100 |       100 |       100 |       100 |</tspan>
<tspan x="10" y="2170">------------------------|-----------|-----------|-----------|-----------|</tspan>
<tspan x="10" y="2186"></tspan>
<tspan x="10" y="2202">created coverage file:///home/travis/build/npmdoc/node-npmdoc-ava/tmp/build/coverage.html/index.\</tspan>
<tspan x="10" y="2218">html</tspan>
<tspan x="10" y="2234">merging file:///home/travis/build/npmdoc/node-npmdoc-ava/tmp/build/test-report.json to test-repo\</tspan>
<tspan x="10" y="2250">rt</tspan>
<tspan x="10" y="2266"></tspan>
<tspan x="10" y="2282">-------------------------------------------------------</tspan>
<tspan x="10" y="2298">| test-report - buildNpmdoc - node - linux v6.10.1 - 2017-04-02T13:12:47.377Z</tspan>
<tspan x="10" y="2314">|   27223 ms            0 failed        6 passed      |</tspan>
<tspan x="10" y="2330">-------------------------------------------------------</tspan>
<tspan x="10" y="2346"></tspan>
<tspan x="10" y="2362">created test-report file:///home/travis/build/npmdoc/node-npmdoc-ava/tmp/build/test-report.html</tspan>
<tspan x="10" y="2378"></tspan>
<tspan x="10" y="2394"></tspan>
<tspan x="10" y="2410">npmTest - 0 failed tests</tspan>
<tspan x="10" y="2426"></tspan>
<tspan x="10" y="2442"></tspan>
<tspan x="10" y="2458">[MODE_BUILD=npmTest] - 2017-04-02T13:13:17Z - EXIT_CODE - 0</tspan>
</text>
</svg>
